<?xml version="1.0" encoding="UTF-8"?>
<svg id="Layer_2" data-name="Layer 2" xmlns="http://www.w3.org/2000/svg" xmlns:xlink="http://www.w3.org/1999/xlink" viewBox="0 0 22.84 4.41">
  <defs>
    <style>
      .cls-1 {
        fill: url(#linear-gradient-2);
      }

      .cls-2 {
        fill: url(#linear-gradient-6);
      }

      .cls-3 {
        clip-path: url(#clippath-2);
      }

      .cls-4 {
        clip-path: url(#clippath-6);
      }

      .cls-5 {
        clip-path: url(#clippath-1);
      }

      .cls-6 {
        clip-path: url(#clippath-4);
      }

      .cls-7 {
        fill: url(#linear-gradient-5);
      }

      .cls-8 {
        clip-path: url(#clippath);
      }

      .cls-9 {
        fill: none;
      }

      .cls-10 {
        clip-path: url(#clippath-3);
      }

      .cls-11 {
        fill: url(#linear-gradient-7);
      }

      .cls-12 {
        fill: url(#linear-gradient-3);
      }

      .cls-13 {
        clip-path: url(#clippath-5);
      }

      .cls-14 {
        fill: url(#linear-gradient);
      }

      .cls-15 {
        fill: url(#linear-gradient-4);
      }

      .cls-16 {
        fill: #2b9cd7;
      }
    </style>
    <clipPath id="clippath">
      <path class="cls-9" d="M0,1.02H.35s0,.07,0,.09c.01,.25,.02,.5,.05,.74,.06,.53,.44,.95,.98,1.07,.37,.08,.75,.07,1.12,.06,.12,0,.23,0,.35,0,0,0,0,0,0,0v-.47c-.06,0-.11,0-.17,0-.33,0-.66,0-.99-.02-.39-.02-.67-.22-.78-.55-.04-.11-.06-.22-.07-.34-.01-.19,0-.38,0-.58h.34c-.2-.34-.39-.67-.59-1.01C.39,.35,.2,.68,0,1.02"/>
    </clipPath>
    <linearGradient id="linear-gradient" x1="-18.58" y1="25.41" x2="-17.58" y2="25.41" gradientTransform="translate(53.08 74.07) scale(2.86 -2.86)" gradientUnits="userSpaceOnUse">
      <stop offset="0" stop-color="#91d6eb"/>
      <stop offset=".02" stop-color="#90d4ea"/>
      <stop offset=".63" stop-color="#7cbcdf"/>
      <stop offset="1" stop-color="#75b4db"/>
    </linearGradient>
    <clipPath id="clippath-1">
      <path class="cls-9" d="M8.28,.46c-.13,0-.14,0-.14,.13V1.79c0,.68,.54,1.2,1.24,1.2h1.2c.4,0,.79,0,1.19,0,.23,0,.22,.01,.22-.22,0-.2-.09-.28-.29-.28-.78,0-1.57,0-2.35,0-.41,0-.72-.31-.72-.7,0-.35,0-.7,0-1.06,0-.17-.1-.27-.27-.27h-.07"/>
    </clipPath>
    <linearGradient id="linear-gradient-2" x1="-18.54" y1="25.4" x2="-17.54" y2="25.4" gradientTransform="translate(79.32 99.28) scale(3.84 -3.84)" xlink:href="#linear-gradient"/>
    <clipPath id="clippath-2">
      <path class="cls-9" d="M18.51,.83c0,.12,.02,.14,.15,.14h1.64q.14,0,.14,.13v1.7q0,.19,.19,.19c.2,0,.29-.09,.29-.29V1.08c0-.11,0-.11,.12-.11h1.51c.19,0,.28-.09,.29-.28v-.09c0-.12-.01-.13-.14-.13h-1.96c-.62,0-1.24,0-1.85,0h-.02c-.31,0-.37,.13-.35,.37"/>
    </clipPath>
    <linearGradient id="linear-gradient-3" x1="-18.52" y1="25.4" x2="-17.52" y2="25.4" gradientTransform="translate(98.66 111.65) scale(4.33 -4.33)" xlink:href="#linear-gradient"/>
    <clipPath id="clippath-3">
      <path class="cls-9" d="M14.77,.46c-.61,0-1.15,.51-1.18,1.1-.01,.21,0,.41,0,.62,0,.23,0,.46,0,.69,0,.04,.03,.09,.05,.1,.23,.09,.43-.05,.43-.29,0-.33,.01-.66,0-1-.02-.37,.3-.74,.75-.73,.8,.01,1.6,0,2.4,0,.14,0,.28,0,.42,0,.16,0,.25-.09,.26-.25,0-.05,0-.09,0-.14,0-.11,0-.12-.12-.12h-1.52c-.3,0-.59,0-.89,0-.2,0-.39,0-.59,0"/>
    </clipPath>
    <linearGradient id="linear-gradient-4" x1="-18.52" y1="25.4" x2="-17.52" y2="25.4" gradientTransform="translate(93.51 111.36) scale(4.32 -4.32)" xlink:href="#linear-gradient"/>
    <clipPath id="clippath-4">
      <path class="cls-9" d="M3.37,.69c0,.19,.09,.28,.29,.28h3.22s.06,0,.09,0c.11,.01,.22,.12,.24,.24,.02,.12-.03,.24-.15,.28-.05,.02-.11,.03-.17,.03-1.07,0-2.14,0-3.21,0-.23,0-.31,.08-.31,.3v.97q0,.2,.21,.2c.18,0,.27-.09,.28-.26,0-.21,0-.42,0-.62q0-.13,.13-.13c.98,0,1.95,0,2.92,0,.06,0,.12,0,.18-.01,.4-.08,.63-.4,.59-.81-.04-.38-.38-.69-.76-.69H3.51c-.14,0-.14,.02-.13,.23"/>
    </clipPath>
    <linearGradient id="linear-gradient-5" x1="-18.52" y1="25.4" x2="-17.52" y2="25.4" gradientTransform="translate(83.34 111.41) scale(4.32 -4.32)" xlink:href="#linear-gradient"/>
    <clipPath id="clippath-5">
      <path class="cls-9" d="M14.79,1.47c-.12,0-.23,.08-.25,.17-.01,.05,0,.1,0,.15,0,.14,0,.14,.14,.14h2.48c.16,0,.25-.09,.26-.24,0-.04,0-.08,0-.11,0-.08-.03-.11-.11-.11-.84,0-1.68,0-2.51,0"/>
    </clipPath>
    <linearGradient id="linear-gradient-6" x1="-18.58" y1="25.41" x2="-17.58" y2="25.41" gradientTransform="translate(68.1 74.95) scale(2.88 -2.88)" xlink:href="#linear-gradient"/>
    <clipPath id="clippath-6">
      <path class="cls-9" d="M12.72,.46c-.16,0-.26,.09-.26,.25,0,.36,0,.72,0,1.07v1.01q0,.19,.2,.19c.19,0,.28-.09,.28-.27,0-.68,0-1.36,0-2.04,0-.2,.01-.22-.15-.22h-.08"/>
    </clipPath>
    <linearGradient id="linear-gradient-7" x1="-19.45" y1="25.47" x2="-18.45" y2="25.47" gradientTransform="translate(21.82 13.97) scale(.48 -.48)" xlink:href="#linear-gradient"/>
  </defs>
  <g id="Layer_1-2" data-name="Layer 1">
    <path class="cls-16" d="M1.27,4.31s.07,0,.1-.02c.03-.01,.05-.02,.06-.03l.05,.09s-.04,.03-.08,.04c-.04,.01-.08,.02-.14,.02-.05,0-.1,0-.14-.02-.04-.02-.08-.04-.11-.07-.03-.03-.06-.07-.08-.11s-.03-.08-.03-.13,0-.09,.03-.13c.02-.04,.04-.08,.08-.11s.07-.06,.11-.07c.04-.02,.09-.03,.14-.03,.05,0,.1,0,.14,.02,.04,.01,.07,.03,.08,.04l-.05,.09s-.03-.02-.06-.03c-.03-.01-.06-.02-.1-.02s-.07,0-.1,.02c-.03,.01-.06,.03-.08,.05s-.04,.05-.05,.07c-.01,.03-.02,.06-.02,.09s0,.07,.02,.09c.01,.03,.03,.05,.05,.08,.02,.02,.05,.04,.08,.05,.03,.01,.06,.02,.1,.02"/>
    <path class="cls-16" d="M3.47,3.74h.25s.07,0,.1,.02c.03,.01,.05,.04,.07,.07,.02,.03,.03,.06,.03,.1s0,.07-.02,.1c-.02,.03-.03,.05-.06,.06-.02,.01-.04,.02-.06,.02l.17,.28h-.12l-.15-.27h-.09v.27h-.11v-.66Zm.11,.31h.1s.07,0,.09-.03c.02-.02,.04-.05,.04-.09s-.01-.07-.04-.09c-.02-.02-.05-.02-.09-.02h-.1v.22Z"/>
    <polygon class="cls-16" points="5.94 3.74 6.35 3.74 6.35 3.83 6.05 3.83 6.05 4.02 6.34 4.02 6.34 4.11 6.05 4.11 6.05 4.3 6.35 4.3 6.35 4.4 5.94 4.4 5.94 3.74"/>
    <path class="cls-16" d="M8.56,3.74h.11l.25,.66h-.11l-.06-.15h-.28l-.05,.15h-.12l.25-.66Zm-.05,.41h.21l-.1-.29h0l-.1,.29Z"/>
    <polygon class="cls-16" points="10.95 3.84 10.78 3.84 10.78 3.74 11.23 3.74 11.23 3.84 11.06 3.84 11.06 4.4 10.95 4.4 10.95 3.84"/>
    <rect class="cls-16" x="13.22" y="3.74" width=".11" height=".66"/>
    <polygon class="cls-16" points="15.68 4.4 15.56 4.4 15.31 3.74 15.43 3.74 15.62 4.27 15.8 3.74 15.92 3.74 15.68 4.4"/>
    <polygon class="cls-16" points="17.9 3.74 18.31 3.74 18.31 3.83 18.01 3.83 18.01 4.02 18.3 4.02 18.3 4.11 18.01 4.11 18.01 4.3 18.31 4.3 18.31 4.4 17.9 4.4 17.9 3.74"/>
    <path class="cls-16" d="M20.55,3.73s.07,0,.1,.01c.03,0,.05,.02,.07,.03,.02,.01,.03,.02,.03,.02l-.05,.08s-.01-.01-.03-.02-.03-.01-.05-.02c-.02,0-.04-.01-.06-.01-.03,0-.06,0-.08,.02-.02,.01-.03,.03-.03,.06,0,.02,0,.03,.02,.04,.01,.01,.03,.02,.05,.03s.04,.02,.07,.03c.02,0,.05,.02,.07,.03,.02,.01,.04,.03,.06,.04,.02,.02,.03,.04,.04,.06,.01,.02,.02,.05,.02,.08,0,.03,0,.06-.02,.08-.01,.02-.03,.04-.05,.06-.02,.02-.05,.03-.08,.04-.03,0-.06,.01-.09,.01-.04,0-.08,0-.11-.01s-.06-.02-.08-.03-.03-.02-.04-.02l.06-.09s.01,0,.02,.01c.01,0,.02,.01,.04,.02,.02,0,.03,.01,.05,.02,.02,0,.04,0,.06,0,.04,0,.07,0,.09-.03,.02-.02,.03-.04,.03-.07,0-.02,0-.04-.02-.05-.01-.02-.03-.03-.05-.04-.02-.01-.05-.03-.08-.04-.03-.01-.06-.03-.08-.04-.03-.02-.05-.04-.06-.06-.02-.02-.02-.05-.02-.08s0-.06,.03-.09c.02-.02,.05-.04,.08-.06,.03-.01,.07-.02,.11-.02"/>
    <g class="cls-8">
      <rect class="cls-14" x="0" y="0" width="2.86" height="3"/>
    </g>
    <g class="cls-5">
      <rect class="cls-1" x="8.14" y=".46" width="3.85" height="2.54"/>
    </g>
    <g class="cls-3">
      <rect class="cls-12" x="18.5" y=".46" width="4.34" height="2.53"/>
    </g>
    <g class="cls-10">
      <rect class="cls-15" x="13.57" y=".46" width="4.32" height="2.61"/>
    </g>
    <g class="cls-6">
      <rect class="cls-7" x="3.36" y=".46" width="4.36" height="2.53"/>
    </g>
    <g class="cls-13">
      <rect class="cls-2" x="14.53" y="1.47" width="2.89" height=".47"/>
    </g>
    <g class="cls-4">
      <rect class="cls-11" x="12.47" y=".46" width=".49" height="2.53"/>
    </g>
  </g>
</svg>